<mxGraphModel dx="901" dy="615" grid="1" gridSize="10" guides="1" tooltips="1" connect="1" arrows="1" fold="1" page="1" pageScale="1" pageWidth="827" pageHeight="1169" math="0" shadow="0">
  <root>
    <mxCell id="0" />
    <mxCell id="1" parent="0" />
    <mxCell id="fPOfwp6UhzIfIAl70ZkZ-47" style="edgeStyle=orthogonalEdgeStyle;rounded=0;orthogonalLoop=1;jettySize=auto;html=1;" parent="1" source="fPOfwp6UhzIfIAl70ZkZ-1" target="fPOfwp6UhzIfIAl70ZkZ-45" edge="1">
      <mxGeometry relative="1" as="geometry" />
    </mxCell>
    <mxCell id="fPOfwp6UhzIfIAl70ZkZ-1" value="Mulai" style="ellipse;whiteSpace=wrap;html=1;" parent="1" vertex="1">
      <mxGeometry x="220" y="70" width="90" height="40" as="geometry" />
    </mxCell>
    <mxCell id="fPOfwp6UhzIfIAl70ZkZ-13" style="edgeStyle=orthogonalEdgeStyle;rounded=0;orthogonalLoop=1;jettySize=auto;html=1;entryX=0.5;entryY=0;entryDx=0;entryDy=0;" parent="1" source="fPOfwp6UhzIfIAl70ZkZ-4" target="fPOfwp6UhzIfIAl70ZkZ-10" edge="1">
      <mxGeometry relative="1" as="geometry" />
    </mxCell>
    <mxCell id="fPOfwp6UhzIfIAl70ZkZ-4" value="Hubungkan Ke WiFi" style="rounded=0;whiteSpace=wrap;html=1;" parent="1" vertex="1">
      <mxGeometry x="197.5" y="210" width="135" height="40" as="geometry" />
    </mxCell>
    <mxCell id="hrUG5j9j7BBFm9Cjpoj3-3" value="" style="edgeStyle=orthogonalEdgeStyle;rounded=0;orthogonalLoop=1;jettySize=auto;html=1;" edge="1" parent="1" source="fPOfwp6UhzIfIAl70ZkZ-5" target="hrUG5j9j7BBFm9Cjpoj3-1">
      <mxGeometry relative="1" as="geometry" />
    </mxCell>
    <mxCell id="fPOfwp6UhzIfIAl70ZkZ-5" value="Baca Sensor&lt;br&gt;Ultrasonik" style="shape=parallelogram;perimeter=parallelogramPerimeter;whiteSpace=wrap;html=1;fixedSize=1;" parent="1" vertex="1">
      <mxGeometry x="577.5" y="110" width="135" height="60" as="geometry" />
    </mxCell>
    <mxCell id="fPOfwp6UhzIfIAl70ZkZ-19" style="edgeStyle=orthogonalEdgeStyle;rounded=0;orthogonalLoop=1;jettySize=auto;html=1;" parent="1" source="fPOfwp6UhzIfIAl70ZkZ-6" target="fPOfwp6UhzIfIAl70ZkZ-7" edge="1">
      <mxGeometry relative="1" as="geometry">
        <Array as="points">
          <mxPoint x="646" y="460" />
          <mxPoint x="646" y="460" />
        </Array>
      </mxGeometry>
    </mxCell>
    <mxCell id="fPOfwp6UhzIfIAl70ZkZ-6" value="Tampilkan Jarak &lt;br&gt;pada LCD" style="shape=parallelogram;perimeter=parallelogramPerimeter;whiteSpace=wrap;html=1;fixedSize=1;" parent="1" vertex="1">
      <mxGeometry x="576.25" y="370" width="135" height="60" as="geometry" />
    </mxCell>
    <mxCell id="hrUG5j9j7BBFm9Cjpoj3-13" style="edgeStyle=orthogonalEdgeStyle;rounded=0;orthogonalLoop=1;jettySize=auto;html=1;" edge="1" parent="1" source="fPOfwp6UhzIfIAl70ZkZ-7" target="fPOfwp6UhzIfIAl70ZkZ-8">
      <mxGeometry relative="1" as="geometry">
        <Array as="points">
          <mxPoint x="646" y="595" />
          <mxPoint x="646" y="595" />
        </Array>
      </mxGeometry>
    </mxCell>
    <mxCell id="hrUG5j9j7BBFm9Cjpoj3-18" style="edgeStyle=orthogonalEdgeStyle;rounded=0;orthogonalLoop=1;jettySize=auto;html=1;entryX=1;entryY=0.5;entryDx=0;entryDy=0;" edge="1" parent="1" source="fPOfwp6UhzIfIAl70ZkZ-7" target="fPOfwp6UhzIfIAl70ZkZ-5">
      <mxGeometry relative="1" as="geometry">
        <mxPoint x="780" y="127" as="targetPoint" />
        <Array as="points">
          <mxPoint x="800" y="535" />
          <mxPoint x="800" y="140" />
        </Array>
      </mxGeometry>
    </mxCell>
    <mxCell id="fPOfwp6UhzIfIAl70ZkZ-7" value="Aplikasi meminta &lt;br&gt;nilai jarak" style="rhombus;whiteSpace=wrap;html=1;" parent="1" vertex="1">
      <mxGeometry x="580" y="460" width="132.5" height="120" as="geometry" />
    </mxCell>
    <mxCell id="fPOfwp6UhzIfIAl70ZkZ-40" style="edgeStyle=orthogonalEdgeStyle;rounded=0;orthogonalLoop=1;jettySize=auto;html=1;entryX=0;entryY=0.5;entryDx=0;entryDy=0;" parent="1" source="fPOfwp6UhzIfIAl70ZkZ-8" target="fPOfwp6UhzIfIAl70ZkZ-5" edge="1">
      <mxGeometry relative="1" as="geometry">
        <mxPoint x="640" y="130" as="targetPoint" />
        <Array as="points">
          <mxPoint x="645" y="690" />
          <mxPoint x="420" y="690" />
          <mxPoint x="420" y="140" />
        </Array>
      </mxGeometry>
    </mxCell>
    <mxCell id="fPOfwp6UhzIfIAl70ZkZ-8" value="Kirimkan Data &lt;br&gt;Jarak Ke Aplikasi" style="rounded=0;whiteSpace=wrap;html=1;" parent="1" vertex="1">
      <mxGeometry x="576.25" y="615" width="120" height="60" as="geometry" />
    </mxCell>
    <mxCell id="fPOfwp6UhzIfIAl70ZkZ-16" style="edgeStyle=orthogonalEdgeStyle;rounded=0;orthogonalLoop=1;jettySize=auto;html=1;" parent="1" source="fPOfwp6UhzIfIAl70ZkZ-10" target="fPOfwp6UhzIfIAl70ZkZ-14" edge="1">
      <mxGeometry relative="1" as="geometry" />
    </mxCell>
    <mxCell id="2DZFF6CWNQCnNkuG9sIs-2" style="edgeStyle=orthogonalEdgeStyle;rounded=0;orthogonalLoop=1;jettySize=auto;html=1;entryX=0.5;entryY=0;entryDx=0;entryDy=0;" parent="1" source="fPOfwp6UhzIfIAl70ZkZ-10" target="2DZFF6CWNQCnNkuG9sIs-1" edge="1">
      <mxGeometry relative="1" as="geometry" />
    </mxCell>
    <mxCell id="fPOfwp6UhzIfIAl70ZkZ-10" value="Terhubung ke WiFi" style="rhombus;whiteSpace=wrap;html=1;" parent="1" vertex="1">
      <mxGeometry x="198.75" y="290" width="132.5" height="120" as="geometry" />
    </mxCell>
    <mxCell id="2DZFF6CWNQCnNkuG9sIs-3" style="edgeStyle=orthogonalEdgeStyle;rounded=0;orthogonalLoop=1;jettySize=auto;html=1;entryX=0;entryY=0.5;entryDx=0;entryDy=0;" parent="1" source="fPOfwp6UhzIfIAl70ZkZ-14" target="2DZFF6CWNQCnNkuG9sIs-1" edge="1">
      <mxGeometry relative="1" as="geometry">
        <Array as="points">
          <mxPoint x="90" y="470" />
        </Array>
      </mxGeometry>
    </mxCell>
    <mxCell id="fPOfwp6UhzIfIAl70ZkZ-14" value="Buat WiFi &lt;br&gt;Access Point" style="rounded=0;whiteSpace=wrap;html=1;" parent="1" vertex="1">
      <mxGeometry x="30" y="320" width="120" height="60" as="geometry" />
    </mxCell>
    <mxCell id="fPOfwp6UhzIfIAl70ZkZ-28" value="Ya" style="text;html=1;strokeColor=none;fillColor=none;align=center;verticalAlign=middle;whiteSpace=wrap;rounded=0;" parent="1" vertex="1">
      <mxGeometry x="270" y="410" width="30" height="20" as="geometry" />
    </mxCell>
    <mxCell id="fPOfwp6UhzIfIAl70ZkZ-29" value="Ya" style="text;html=1;strokeColor=none;fillColor=none;align=center;verticalAlign=middle;whiteSpace=wrap;rounded=0;" parent="1" vertex="1">
      <mxGeometry x="620" y="580" width="30" height="20" as="geometry" />
    </mxCell>
    <mxCell id="fPOfwp6UhzIfIAl70ZkZ-31" value="Tidak" style="text;html=1;strokeColor=none;fillColor=none;align=center;verticalAlign=middle;whiteSpace=wrap;rounded=0;" parent="1" vertex="1">
      <mxGeometry x="168.75" y="320" width="30" height="20" as="geometry" />
    </mxCell>
    <mxCell id="fPOfwp6UhzIfIAl70ZkZ-46" style="edgeStyle=orthogonalEdgeStyle;rounded=0;orthogonalLoop=1;jettySize=auto;html=1;entryX=0.5;entryY=0;entryDx=0;entryDy=0;" parent="1" source="fPOfwp6UhzIfIAl70ZkZ-45" target="fPOfwp6UhzIfIAl70ZkZ-4" edge="1">
      <mxGeometry relative="1" as="geometry" />
    </mxCell>
    <mxCell id="fPOfwp6UhzIfIAl70ZkZ-45" value="Inisialisasi Sensor dan LCD" style="rounded=0;whiteSpace=wrap;html=1;" parent="1" vertex="1">
      <mxGeometry x="172.5" y="140" width="185" height="40" as="geometry" />
    </mxCell>
    <mxCell id="2DZFF6CWNQCnNkuG9sIs-4" style="edgeStyle=orthogonalEdgeStyle;rounded=0;orthogonalLoop=1;jettySize=auto;html=1;entryX=0.542;entryY=-0.023;entryDx=0;entryDy=0;entryPerimeter=0;" parent="1" source="2DZFF6CWNQCnNkuG9sIs-1" target="fPOfwp6UhzIfIAl70ZkZ-5" edge="1">
      <mxGeometry relative="1" as="geometry">
        <Array as="points">
          <mxPoint x="390" y="470" />
          <mxPoint x="390" y="90" />
          <mxPoint x="651" y="90" />
          <mxPoint x="651" y="100" />
        </Array>
      </mxGeometry>
    </mxCell>
    <mxCell id="2DZFF6CWNQCnNkuG9sIs-1" value="Tampilkan IP Address&lt;br&gt;pada LCD" style="shape=parallelogram;perimeter=parallelogramPerimeter;whiteSpace=wrap;html=1;fixedSize=1;" parent="1" vertex="1">
      <mxGeometry x="180" y="440" width="170" height="60" as="geometry" />
    </mxCell>
    <mxCell id="hrUG5j9j7BBFm9Cjpoj3-5" style="edgeStyle=orthogonalEdgeStyle;rounded=0;orthogonalLoop=1;jettySize=auto;html=1;entryX=0.5;entryY=0;entryDx=0;entryDy=0;" edge="1" parent="1" source="hrUG5j9j7BBFm9Cjpoj3-1" target="hrUG5j9j7BBFm9Cjpoj3-2">
      <mxGeometry relative="1" as="geometry">
        <Array as="points">
          <mxPoint x="520" y="260" />
        </Array>
      </mxGeometry>
    </mxCell>
    <mxCell id="hrUG5j9j7BBFm9Cjpoj3-7" style="edgeStyle=orthogonalEdgeStyle;rounded=0;orthogonalLoop=1;jettySize=auto;html=1;entryX=0.5;entryY=0;entryDx=0;entryDy=0;" edge="1" parent="1" source="hrUG5j9j7BBFm9Cjpoj3-1" target="fPOfwp6UhzIfIAl70ZkZ-6">
      <mxGeometry relative="1" as="geometry">
        <Array as="points">
          <mxPoint x="644" y="340" />
          <mxPoint x="644" y="340" />
        </Array>
      </mxGeometry>
    </mxCell>
    <mxCell id="hrUG5j9j7BBFm9Cjpoj3-1" value="Apakah &lt;br&gt;jarak &amp;gt; 100cm" style="rhombus;whiteSpace=wrap;html=1;" vertex="1" parent="1">
      <mxGeometry x="578.75" y="200" width="132.5" height="120" as="geometry" />
    </mxCell>
    <mxCell id="hrUG5j9j7BBFm9Cjpoj3-6" style="edgeStyle=orthogonalEdgeStyle;rounded=0;orthogonalLoop=1;jettySize=auto;html=1;" edge="1" parent="1" source="hrUG5j9j7BBFm9Cjpoj3-2" target="fPOfwp6UhzIfIAl70ZkZ-6">
      <mxGeometry relative="1" as="geometry">
        <Array as="points">
          <mxPoint x="520" y="400" />
        </Array>
      </mxGeometry>
    </mxCell>
    <mxCell id="hrUG5j9j7BBFm9Cjpoj3-2" value="Baca Sensor&lt;br&gt;Inframerah" style="shape=parallelogram;perimeter=parallelogramPerimeter;whiteSpace=wrap;html=1;fixedSize=1;" vertex="1" parent="1">
      <mxGeometry x="452.5" y="320" width="135" height="60" as="geometry" />
    </mxCell>
    <mxCell id="hrUG5j9j7BBFm9Cjpoj3-8" value="Tidak" style="text;html=1;strokeColor=none;fillColor=none;align=center;verticalAlign=middle;whiteSpace=wrap;rounded=0;" vertex="1" parent="1">
      <mxGeometry x="650" y="320" width="30" height="20" as="geometry" />
    </mxCell>
    <mxCell id="hrUG5j9j7BBFm9Cjpoj3-9" value="Ya" style="text;html=1;strokeColor=none;fillColor=none;align=center;verticalAlign=middle;whiteSpace=wrap;rounded=0;" vertex="1" parent="1">
      <mxGeometry x="540" y="240" width="30" height="20" as="geometry" />
    </mxCell>
    <mxCell id="fPOfwp6UhzIfIAl70ZkZ-30" value="Tidak" style="text;html=1;strokeColor=none;fillColor=none;align=center;verticalAlign=middle;whiteSpace=wrap;rounded=0;" parent="1" vertex="1">
      <mxGeometry x="712.5" y="485" width="30" height="20" as="geometry" />
    </mxCell>
  </root>
</mxGraphModel>
